<svg id="Calque_5" data-name="Calque 5" xmlns="http://www.w3.org/2000/svg" viewBox="0 0 730.50597 730.50225">
  <defs>
    <style>
      .cls-1 {
        fill: #f4973a;
      }

      .cls-2 {
        fill: #af5d14;
      }

      .cls-3 {
        fill: #f4f0ed;
      }

      .cls-4 {
        fill: #549193;
      }
    </style>
  </defs>
  <g>
    <path class="cls-1" d="M760,395.74869C760,597.46983,596.46834,761,394.74346,761,193.0242,761,29.494,597.46983,29.494,395.74869c0-201.72451,163.53017-365.25094,365.24943-365.25094C596.46834,30.49775,760,194.02418,760,395.74869Z" transform="translate(-29.49403 -30.49775)"/>
    <path class="cls-2" d="M760,395.74869q0-9.61791-.49251-19.11548l-51.3071-54.29593L524.32116,416.84253,410.81553,499.10389,358.782,510.103,215.42972,395.74869,81.29215,322.33354,489.85261,748.48966C612.81769,717.45877,760,593.31691,760,395.74869Z" transform="translate(-29.49403 -30.49775)"/>
    <g>
      <path class="cls-3" d="M691.49527,311.88154l-18.93872-13.01745-14.42779-10.58317c-197.19226,50.98233-251.906,183.53991-251.906,183.53991l-.00561.03289a66.90522,66.90522,0,0,0-3.95785,8.80959S430.15374,324.837,658.12876,288.28092l-10.58165-8.65638S437.624,299.82413,396.85636,460.46747c0,0,31.374-171.22315,243.95778-186.61247l-9.61828-9.62351S424.04823,279.70115,394.7472,433.34137C365.44766,279.70115,158.30191,264.23149,158.30191,264.23149l-9.61977,9.62351C361.26559,289.24432,392.6414,460.46747,392.6414,460.46747,351.87,299.82413,141.94882,279.62454,141.94882,279.62454l-10.5813,8.65638c227.97315,36.556,255.86907,192.38239,255.86907,192.38239a67.37862,67.37862,0,0,0-3.956-8.80959l-.0056-.03289S328.55941,339.26325,131.36752,288.28092l-14.43,10.58317-18.935,13.01745L368.0004,504.71275l24.641,4.93395v.84307l2.1058-.41593,2.10916.41593v-.84307l24.63726-4.93395Z" transform="translate(-29.49403 -30.49775)"/>
      <path class="cls-4" d="M697.44382,306.433,419.38409,494.593s-24.752,16.60123-49.27415,0l-.06764.09492.06764-.102L92.05059,306.433,81.29215,322.33354,358.782,510.103c.00933.02915,6.31364,17.15953,37.14573,17.15953,30.85374,0,34.2133-16.77275,34.2133-16.77275L708.20039,322.33728Z" transform="translate(-29.49403 -30.49775)"/>
    </g>
  </g>
</svg>
