<svg id="Calque_1" data-name="Calque 1" xmlns="http://www.w3.org/2000/svg" viewBox="0 0 728.26352 728.2654">
  <defs>
    <style>
      .cls-1 {
        fill: #94cdad;
      }

      .cls-2 {
        fill: #5c9971;
      }

      .cls-3 {
        fill: #fbaa3e;
      }

      .cls-4 {
        fill: #e5891a;
      }

      .cls-5, .cls-8 {
        fill: #fff;
      }

      .cls-5 {
        opacity: 0.4;
      }

      .cls-6 {
        fill: #961c45;
      }

      .cls-7 {
        fill: #d16f95;
      }

      .cls-8 {
        opacity: 0.2;
      }

      .cls-9 {
        fill: #ff4200;
      }
    </style>
  </defs>
  <g>
    <path class="cls-1" d="M754,389.86805C754,590.97285,590.97844,754,389.87178,754c-201.10626,0-364.1353-163.02715-364.1353-364.13195,0-201.10444,163.029-364.13345,364.1353-364.13345C590.97844,25.7346,754,188.76361,754,389.86805Z" transform="translate(-25.73648 -25.7346)"/>
    <path class="cls-2" d="M233.472,640.22527,420.20031,752.73406C607.103,737.31888,754,580.75667,754,389.86805c0-25.37281-1.6154-34.32269-4.5623-57.813L546.51223,184.10482Z" transform="translate(-25.73648 -25.7346)"/>
    <g>
      <g>
        <g>
          <path class="cls-3" d="M337.65793,640.22527H233.23171V256.62922s52.2105-27.44682,104.42622.855Z" transform="translate(-25.73648 -25.7346)"/>
          <rect class="cls-4" x="230.98924" y="266.87293" width="57.4311" height="72.69726"/>
        </g>
        <path class="cls-5" d="M279.98131,244.883A124.95188,124.95188,0,0,0,233.472,256.62922V640.22527h46.50927Z" transform="translate(-25.73648 -25.7346)"/>
      </g>
      <g>
        <g>
          <path class="cls-6" d="M442.08042,640.22527H337.65793V154.635s52.20677-34.73957,104.42249,1.08972Z" transform="translate(-25.73648 -25.7346)"/>
          <rect class="cls-7" x="335.41364" y="174.45115" width="57.43479" height="92.02687"/>
        </g>
        <path class="cls-8" d="M384.409,139.573a105.62249,105.62249,0,0,0-46.50372,14.86379V640.22527H384.409Z" transform="translate(-25.73648 -25.7346)"/>
      </g>
      <g>
        <g>
          <path class="cls-9" d="M546.51223,640.22527H442.08042V183.08253s52.21572-32.70952,104.43181,1.02229Z" transform="translate(-25.73648 -25.7346)"/>
          <rect class="cls-5" x="439.83982" y="200.22595" width="57.43297" height="86.63526"/>
        </g>
        <path class="cls-5" d="M488.839,168.88225a109.96586,109.96586,0,0,0-46.51824,13.99836V640.22527H488.839Z" transform="translate(-25.73648 -25.7346)"/>
      </g>
    </g>
  </g>
</svg>
