<svg id="Calque_2" data-name="Calque 2" xmlns="http://www.w3.org/2000/svg" xmlns:xlink="http://www.w3.org/1999/xlink" viewBox="0 0 726 729">
  <defs>
    <style>
      .cls-1 {
        fill: none;
      }

      .cls-2 {
        fill: #3a8789;
      }

      .cls-3 {
        fill: #1d5656;
      }

      .cls-4 {
        fill: #e7e6e6;
      }

      .cls-5 {
        clip-path: url(#clip-path);
      }

      .cls-6 {
        fill: #d0d1d1;
      }

      .cls-7 {
        fill: #ff4200;
      }

      .cls-8 {
        clip-path: url(#clip-path-2);
      }

      .cls-9 {
        fill: #ef0f44;
      }

      .cls-10 {
        fill: #f49ab8;
      }

      .cls-11 {
        fill: #ef6c9e;
      }

      .cls-12 {
        fill: #fff;
      }

      .cls-12, .cls-15 {
        opacity: 0.4;
      }

      .cls-13 {
        fill: #83e2be;
      }

      .cls-14 {
        fill: #22af7c;
      }

      .cls-15 {
        fill: #fffefd;
      }
    </style>
    <clipPath id="clip-path" transform="translate(-26 -26)">
      <path class="cls-1" d="M623.58039,513.70267s-19.0485,37.21283,2.17972,79.1257H187.2777L185.098,508.2068Z"/>
    </clipPath>
    <clipPath id="clip-path-2" transform="translate(-26 -26)">
      <path class="cls-1" d="M605.08675,293.94877s-19.0303,37.21656,2.17229,79.12943H169.3772L167.19933,288.457Z"/>
    </clipPath>
  </defs>
  <g>
    <ellipse class="cls-2" cx="363.00056" cy="364.50037" rx="363.00056" ry="364.49963"/>
    <path class="cls-3" d="M185.098,610.129,437.03553,751.81891C614.80691,728.21952,752,575.45654,752,390.50075a367.54781,367.54781,0,0,0-7.36626-73.42211L556.294,170.871Z" transform="translate(-26 -26)"/>
    <g>
      <g>
        <path class="cls-4" d="M623.58039,513.70267s-19.0485,37.21283,2.17972,79.1257H187.2777L185.098,508.2068Z" transform="translate(-26 -26)"/>
        <g class="cls-5">
          <g>
            <g>
              <g>
                <rect class="cls-6" x="159.09798" y="492.06558" width="437.58474" height="3.44886"/>
                <rect class="cls-6" x="159.09798" y="498.9633" width="437.58474" height="3.45072"/>
              </g>
              <g>
                <rect class="cls-6" x="159.09798" y="509.31546" width="437.58474" height="3.44886"/>
                <rect class="cls-6" x="159.09798" y="519.6639" width="437.58474" height="3.45072"/>
              </g>
            </g>
            <g>
              <rect class="cls-6" x="159.09798" y="526.56348" width="437.58474" height="3.45072"/>
              <g>
                <rect class="cls-6" x="159.09798" y="533.46306" width="437.58474" height="3.45445"/>
                <rect class="cls-6" x="159.09798" y="543.81336" width="437.58474" height="3.44886"/>
              </g>
              <rect class="cls-6" x="159.09798" y="554.16888" width="437.58474" height="3.4455"/>
            </g>
          </g>
        </g>
        <path class="cls-7" d="M190.95526,543.24731V532.027c0-19.93759,16.10185-18.3243,16.10185-18.3243H632.36649v-22.902H202.6687c-9.02379,0-15.284,2.61647-19.64162,6.41327v-.00559s-.02191.01641-.02711.022c-.37919.32781-.73648.67016-1.08447,1.01437-.04011.03991-.078.07645-.11438.11263-.19054.19318-.39518.386-.58013.581-8.12985,8.24511-39.58777,45.6239-3.36781,98.45877,3.97689,6.89212,11.325,12.73183,24.81552,12.73183H632.36649V587.22509H207.05711s-16.10185,1.60994-16.10185-18.32429V543.24731Z" transform="translate(-26 -26)"/>
      </g>
      <g>
        <path class="cls-4" d="M605.08675,293.94877s-19.0303,37.21656,2.17229,79.12943H169.3772L167.19933,288.457Z" transform="translate(-26 -26)"/>
        <g class="cls-8">
          <g>
            <g>
              <g>
                <rect class="cls-6" x="141.19933" y="272.31355" width="436.98978" height="3.45072"/>
                <rect class="cls-6" x="141.19933" y="279.21313" width="436.98978" height="3.44886"/>
              </g>
              <g>
                <rect class="cls-6" x="141.19933" y="289.56156" width="436.98978" height="3.45445"/>
                <rect class="cls-6" x="141.19933" y="299.91373" width="436.98978" height="3.45072"/>
              </g>
            </g>
            <g>
              <rect class="cls-6" x="141.19933" y="306.81331" width="436.98978" height="3.44886"/>
              <g>
                <rect class="cls-6" x="141.19933" y="313.71289" width="436.98978" height="3.44886"/>
                <rect class="cls-6" x="141.19933" y="324.06319" width="436.98978" height="3.45072"/>
              </g>
              <rect class="cls-6" x="141.19933" y="334.41349" width="436.98978" height="3.44699"/>
            </g>
          </g>
        </g>
        <path class="cls-9" d="M173.04583,323.49714V312.2712c0-19.932,16.08514-18.32243,16.08514-18.32243H613.85465V271.04863H184.74441c-9.00745,0-15.26582,2.62021-19.61635,6.40955v-.00187l-.02154.022c-.38254.33153-.738.67388-1.08633,1.0181a1.57594,1.57594,0,0,0-.11068.11262c-.19944.19318-.40259.38263-.58569.58289-8.11684,8.24325-39.53318,45.6183-3.36038,98.455,3.9717,6.89213,11.30712,12.73184,24.781,12.73184H613.85465V367.47492H189.131s-16.08514,1.61181-16.08514-18.32056V323.49714Z" transform="translate(-26 -26)"/>
      </g>
      <g>
        <rect class="cls-10" x="132.07935" y="364.3788" width="477.00018" height="100.42187"/>
        <rect class="cls-11" x="161.21977" y="388.6957" width="122.68563" height="55.03105"/>
        <rect class="cls-12" x="132.07935" y="414.58973" width="477.00018" height="50.21093"/>
      </g>
      <g>
        <g>
          <rect class="cls-13" x="210.86679" y="144.87103" width="319.42717" height="100.42522"/>
          <rect class="cls-14" x="491.62388" y="144.87103" width="8.33822" height="100.42522"/>
          <rect class="cls-14" x="455.8897" y="144.87103" width="8.33634" height="100.42522"/>
          <rect class="cls-14" x="234.34343" y="163.71407" width="63.19553" height="63.46002"/>
        </g>
        <rect class="cls-15" x="210.86679" y="195.08346" width="319.42717" height="50.2128"/>
      </g>
    </g>
  </g>
</svg>
