<svg id="Calque_1" data-name="Calque 1" xmlns="http://www.w3.org/2000/svg" viewBox="0 0 718.73011 718.72461">
  <defs>
    <style>
      .cls-1 {
        fill: #f4973a;
      }

      .cls-2 {
        fill: #af5d14;
      }

      .cls-3 {
        fill: #ddd;
      }

      .cls-4 {
        fill: #3a3a3a;
      }

      .cls-5 {
        fill: #2e82c6;
      }

      .cls-6 {
        fill: #eff4f2;
      }
    </style>
  </defs>
  <g>
    <path class="cls-1" d="M749,389.63843C749,588.10862,588.0998,749,389.62784,749,191.15575,749,30.26989,588.10862,30.26989,389.63843c0-198.46983,160.88586-359.363,359.358-359.363C588.0998,30.27539,749,191.1686,749,389.63843Z" transform="translate(-30.26989 -30.27539)"/>
    <path class="cls-2" d="M381.84339,748.90293c2.58511.05589,5.185.09707,7.78445.09707,191.00341,0,347.18562-149.021,358.66843-337.13938L551.21038,253.14513l-89.74281,70.11131L425.24615,405.394,381.81477,477.1315H310.03932L184.341,483.91765l-111.62355,28.423Z" transform="translate(-30.26989 -30.27539)"/>
    <g>
      <g>
        <path class="cls-3" d="M354.02374,503.558s-47.03648-34.37969-131.04106-24.71355c-84.01194,9.66908-109.09573,20.32794-138.56,24.71355,0,0,28.21459,3.765,68.34279-3.75726,40.12091-7.52591,147.95993-25.70847,196.86346,4.7l8.77526-.94271" transform="translate(-30.26989 -30.27539)"/>
        <polygon class="cls-4" points="385.354 476.211 54.153 476.211 112.672 431.07 385.354 431.07 385.354 476.211"/>
        <path class="cls-5" d="M363.63215,506.48619v13.20794L72.71743,512.34066s61.86549-50.99486,70.22418-50.99486L84.42269,506.48619Z" transform="translate(-30.26989 -30.27539)"/>
        <polygon class="cls-4" points="385.354 476.211 664.57 476.211 606.051 431.07 333.362 431.07 385.354 476.211"/>
        <path class="cls-5" d="M415.6234,506.48619v13.20794l290.9217-7.35347S644.687,461.3458,636.32092,461.3458l58.51893,45.14039Z" transform="translate(-30.26989 -30.27539)"/>
        <path class="cls-5" d="M354.02374,506.48619s6.2692,27.00121,34.26828,27.00121,38.03141-27.00121,38.03141-27.00121Z" transform="translate(-30.26989 -30.27539)"/>
        <path class="cls-4" d="M354.02374,503.558s15.45369,14.21352,36.35078,14.21352c20.90445,0,34.87163-14.21352,34.87163-14.21352Z" transform="translate(-30.26989 -30.27539)"/>
      </g>
      <path class="cls-6" d="M699.802,477.1315l-10.09668-11.54164c-50.23193-5.91918-138.49491-6.50451-138.49491-6.50451,79.423-8.63886,144.36923,0,144.36923,0-7.12368-29.45874-26.125-37.93435-26.125-37.93435-161.97748,13.99806-200.36775,42.18208-200.36775,42.18208,67.10043-58.43987,211.36928-54.47231,211.36928-54.47231C646.83418,319.0804,597.23391,305.307,597.23391,305.307,513.83232,351.73312,425.80612,461.3458,425.80612,461.3458,504.10919,337.613,600.50878,290.4276,600.50878,290.4276L568.5381,283.462c-95.68815,76.314-142.732,155.4193-142.732,155.4193C463.81584,353.787,572.64575,269.53786,572.64575,269.53786l-18.915-2.96051c-48.03471,35.45329-110.91976,124.941-110.91976,124.941,36.6383-69.894,108.39936-138.37321,108.39936-138.37321H505.81813c-93.16039,56.97874-111.43628,188.49558-113.713,208.55438-2.26928-20.0588-20.54523-151.57564-113.70593-208.55438H233.00031s71.76111,68.4792,108.399,138.37321c0,0-62.885-89.4877-110.91241-124.941l-18.92232,2.96051S320.39448,353.787,358.4042,438.88132c0,0-47.04346-79.10534-142.732-155.4193l-31.96333,6.96558S280.0942,337.613,358.4042,461.3458c0,0-88.0262-109.61268-171.42779-156.03882,0,0-49.59292,13.77342-83.21477,103.55379,0,0,142.09291,12.29023,202.66565,53.81528,0,0-94.3527-40.15143-191.66418-41.525,0,0-19.00137,8.47561-26.132,37.93435,0,0,64.95321-8.63886,144.36923,0,0,0-88.26335.58533-138.49528,6.50451L84.42269,477.1315l31.16622-6.03389-30.11063,30.439s45.90919,1.82771,87.50925-7.31376C214.588,485.0795,320.58126,467.843,360.3503,501.53657h59.72526c39.769-33.69361,149.55422-16.45707,191.15458-7.31376,41.60006,9.14147,87.50925,7.31376,87.50925,7.31376l-30.118-30.439Z" transform="translate(-30.26989 -30.27539)"/>
    </g>
  </g>
</svg>
