<svg id="Calque_4" data-name="Calque 4" xmlns="http://www.w3.org/2000/svg" viewBox="0 0 731.49772 731.494">
  <defs>
    <style>
      .cls-1 {
        fill: #ffc907;
      }

      .cls-2 {
        fill: #bf8f08;
      }

      .cls-3 {
        fill: #ef5e25;
      }

      .cls-4 {
        fill: #e3deca;
      }

      .cls-5 {
        fill: #fcf8dd;
      }

      .cls-6 {
        fill: #c4bfab;
      }

      .cls-7 {
        fill: #dd4212;
      }
    </style>
  </defs>
  <g>
    <path class="cls-1" d="M760.49772,395.74962c0,201.99719-163.75092,365.74438-365.74811,365.74438C192.75092,761.494,29,597.74681,29,395.74962,29,193.75093,192.75092,30,394.74961,30,596.7468,30,760.49772,193.75093,760.49772,395.74962Z" transform="translate(-29 -30)"/>
    <path class="cls-2" d="M148.20643,583.06717,394.74961,761.494c215.891-5.52924,365.74811-176.78969,365.74811-365.74438,0-6.16838-3.11375-43.936-3.41311-50.02771L641.28606,233.54453Z" transform="translate(-29 -30)"/>
    <g>
      <g>
        <path class="cls-3" d="M394.74961,233.54453c-146.10567-56.5179-246.54318,0-246.54318,0V583.06717c97.10481-48.27008,246.54318,0,246.54318,0s149.43317-48.27008,246.53645,0V233.54453S540.85756,177.02663,394.74961,233.54453Z" transform="translate(-29 -30)"/>
        <g>
          <path class="cls-4" d="M394.74961,251.99915V561.75887s-136.37416-42.785-224.992,0V251.99915S261.41586,201.91082,394.74961,251.99915Z" transform="translate(-29 -30)"/>
          <path class="cls-5" d="M394.74961,251.99915V561.75887s136.36518-42.785,224.983,0V251.99915S528.07438,201.91082,394.74961,251.99915Z" transform="translate(-29 -30)"/>
        </g>
      </g>
      <g>
        <path class="cls-6" d="M373.00836,287.92872c-100.25861-36.5399-180.2391-.49357-181.03578-.12611l-3.24136-6.989c.8259-.3802,83.55452-37.8006,186.91565-.12424Z" transform="translate(-29 -30)"/>
        <path class="cls-6" d="M373.00836,307.1905c-100.25861-36.53616-180.2391-.48946-181.03578-.12424l-3.24136-6.98714c.8259-.37981,83.55452-37.80208,186.91565-.12423Z" transform="translate(-29 -30)"/>
        <path class="cls-6" d="M373.00836,326.45639c-100.25861-36.53616-180.2391-.49357-181.03578-.12461l-3.24136-6.9905c.8259-.3802,83.55452-37.79873,186.91565-.12424Z" transform="translate(-29 -30)"/>
        <path class="cls-6" d="M190.18538,344.21611l-2.91056-7.13307c1.504-.61407,37.55549-15.09988,95.01264-14.47833l-.07484,7.703C226.47306,329.73779,190.54162,344.07392,190.18538,344.21611Z" transform="translate(-29 -30)"/>
        <path class="cls-6" d="M373.00836,407.37052c-100.25861-36.55075-180.2391-.49694-181.03578-.128l-3.24136-6.99051c.8259-.38019,83.55452-37.80059,186.91565-.12087Z" transform="translate(-29 -30)"/>
        <path class="cls-6" d="M373.00836,426.636c-100.25861-36.55037-180.2391-.49694-181.03578-.1276l-3.24136-6.99088c.8259-.38019,83.55452-37.80059,186.91565-.12424Z" transform="translate(-29 -30)"/>
        <path class="cls-6" d="M373.00836,492.133c-100.25861-36.547-180.2391-.49694-181.03578-.128l-3.24136-6.99088c.8259-.37981,83.55452-37.79685,186.91565-.12049Z" transform="translate(-29 -30)"/>
        <path class="cls-6" d="M373.00836,511.39475c-100.25861-36.53953-180.2391-.4932-181.03578-.1205L188.73122,504.28c.8259-.38019,83.55452-37.79685,186.91565-.12424Z" transform="translate(-29 -30)"/>
        <path class="cls-6" d="M373.00836,530.66064c-100.25861-36.54364-180.2391-.49694-181.03578-.12423l-3.24136-6.99463c.8259-.37981,83.55452-37.7931,186.91565-.12049Z" transform="translate(-29 -30)"/>
      </g>
      <g>
        <path class="cls-6" d="M598.0625,287.92872c-100.26048-36.54364-180.2391-.49357-181.04326-.12611l-3.23051-6.989c.81876-.3802,83.54554-37.8006,186.9048-.12424Z" transform="translate(-29 -30)"/>
        <path class="cls-6" d="M598.0625,307.1905C497.802,270.651,417.8234,306.701,417.01924,307.06626l-3.23051-6.98714c.81876-.37981,83.54554-37.80208,186.9048-.12423Z" transform="translate(-29 -30)"/>
        <path class="cls-6" d="M598.0625,326.45639c-100.26048-36.54364-180.2391-.49357-181.04326-.12461l-3.23051-6.9905c.81876-.3802,83.54554-37.79873,186.9048-.12424Z" transform="translate(-29 -30)"/>
        <path class="cls-6" d="M598.0625,345.72191c-100.26048-36.54327-180.2391-.4932-181.04326-.12424l-3.23051-6.99462c.81876-.37981,83.54554-37.79647,186.9048-.12049Z" transform="translate(-29 -30)"/>
        <path class="cls-6" d="M598.0625,364.98369c-100.26048-36.53953-180.2391-.4932-181.04326-.1205l-3.23051-6.99424c.81876-.38019,83.54554-37.79685,186.9048-.12424Z" transform="translate(-29 -30)"/>
        <path class="cls-6" d="M598.0625,384.24584c-100.26048-36.53953-180.2391-.48946-181.04326-.11675l-3.23051-6.99462c.81876-.38356,83.54554-37.80022,186.9048-.12424Z" transform="translate(-29 -30)"/>
        <path class="cls-6" d="M599.34153,402.71131l2.91617-7.13682c-1.5129-.61407-37.55923-15.09614-95.02008-14.48244l.08041,7.7071C563.05389,388.22924,598.98342,402.56874,599.34153,402.71131Z" transform="translate(-29 -30)"/>
        <path class="cls-6" d="M413.78873,440.03292v74.08454s58.44768-29.93632,186.91191,0V440.03292S527.8405,403.60641,413.78873,440.03292Z" transform="translate(-29 -30)"/>
      </g>
      <path class="cls-7" d="M444.32453,389.05511V237.28133a354.77894,354.77894,0,0,0-38.52393,10.78194V389.05511l19.25808-19.34635Z" transform="translate(-29 -30)"/>
    </g>
  </g>
</svg>
