<svg id="Calque_3" data-name="Calque 3" xmlns="http://www.w3.org/2000/svg" viewBox="0 0 725.00184 725">
  <defs>
    <style>
      .cls-1 {
        fill: #3a8789;
      }

      .cls-2 {
        fill: #1d5656;
      }

      .cls-3 {
        fill: #eaf4ef;
      }

      .cls-4 {
        fill: #48c18d;
      }

      .cls-5 {
        fill: #2f8e63;
      }

      .cls-6 {
        fill: #30b277;
      }

      .cls-7 {
        fill: #83e2be;
      }

      .cls-8 {
        fill: #4fc696;
      }
    </style>
  </defs>
  <g>
    <path class="cls-1" d="M754.2484,392.5026C754.2484,592.70652,591.94416,755,391.7403,755c-200.204,0-362.49374-162.29348-362.49374-362.4974C29.24656,192.29719,191.53633,30,391.7403,30,591.94416,30,754.2484,192.29719,754.2484,392.5026Z" transform="translate(-29.24656 -30)"/>
    <path class="cls-2" d="M754.2484,392.5026a362.76125,362.76125,0,0,0-12.14787-93.28534L627.185,192.41291,156.30255,505.21621l296.76339,244.59h0C624.06291,720.6682,754.2484,571.801,754.2484,392.5026Z" transform="translate(-29.24656 -30)"/>
    <g>
      <path class="cls-3" d="M170.30482,196.06387S394.72473,160.457,394.72473,242.864h-45.0276Z" transform="translate(-29.24656 -30)"/>
      <path class="cls-3" d="M619.13722,196.06387S394.72473,160.457,394.72473,242.864H439.7446Z" transform="translate(-29.24656 -30)"/>
      <path class="cls-4" d="M349.69713,242.864s40.36265,15.97648,84.09334,0V584.253s-37.84146,27.75087-84.09334,0Z" transform="translate(-29.24656 -30)"/>
      <path class="cls-5" d="M433.79047,242.864H349.69713S390.05978,258.84046,433.79047,242.864Z" transform="translate(-29.24656 -30)"/>
      <path class="cls-6" d="M349.69713,257.16518s42.22411,19.732,84.09334,0v42.00869s-36.42172,29.27185-84.09334,0Z" transform="translate(-29.24656 -30)"/>
      <path class="cls-6" d="M349.69713,523.2025s42.22411,19.732,84.09334,0V565.209s-36.42172,29.27223-84.09334,0Z" transform="translate(-29.24656 -30)"/>
      <g>
        <polygon class="cls-7" points="127.056 162.413 127.056 475.216 320.451 554.253 320.451 212.864 127.056 162.413"/>
        <path class="cls-8" d="M343.43844,570.55151,162.55413,496.62844V206.48751l2.39738.62493,178.48693,46.55941ZM166.37162,494.06416l173.2497,70.80433V256.62555l-173.2497-45.19382Z" transform="translate(-29.24656 -30)"/>
      </g>
      <g>
        <polygon class="cls-7" points="597.938 162.413 597.938 475.216 404.544 554.253 404.544 212.864 597.938 162.413"/>
        <path class="cls-8" d="M440.04168,253.67185l178.50139-46.55941,2.38329-.62493V496.62844L440.04168,570.55151Zm177.06719-42.24012-173.2497,45.19382V564.86849l173.2497-70.80433Z" transform="translate(-29.24656 -30)"/>
      </g>
    </g>
  </g>
</svg>
